Coordinates
version=1
nRows=18
nColumns=34
inDegrees=no

Units are S.I. units (second, meters, Newtons, ...)
If the header above contains a line with 'inDegrees', this indicates whether rotational values are in degrees (yes) or radians (no).

endheader
time	pelvis_tilt	pelvis_list	pelvis_rotation	pelvis_tx	pelvis_ty	pelvis_tz	hip_flexion_r	hip_adduction_r	hip_rotation_r	knee_angle_r	ankle_angle_r	subtalar_angle_r	mtp_angle_r	hip_flexion_l	hip_adduction_l	hip_rotation_l	knee_angle_l	ankle_angle_l	subtalar_angle_l	mtp_angle_l	lumbar_extension	lumbar_bending	lumbar_rotation	arm_flex_r	arm_add_r	arm_rot_r	elbow_flex_r	pro_sup_r	arm_flex_l	arm_add_l	arm_rot_l	elbow_flex_l	pro_sup_l
0.43	-0.0315056	-0.0325137	-0.0242949	0.384351	0.950642	-0.187617	0.00751398	0.0486174	-0.466279	0.264586	0.393545	0.318354	-0.0109025	0.552878	-0.0640066	-0.168442	0.407221	0.0944978	0.0401167	-0.0109282	-0.172277	-0.0233183	0.0374636	0.370079	-0.366554	0.248751	1.15473	1.80508	-0.29887	-0.21773	0.0128615	0.511826	1.81846
0.44	-0.0290786	-0.0316517	-0.0276097	0.39696	0.948653	-0.187531	-0.0115608	0.0457839	-0.471088	0.266582	0.409108	0.319898	-0.0108993	0.54688	-0.0597386	-0.187549	0.345471	0.108135	0.0965544	-0.010925	-0.174603	-0.0244008	0.0396792	0.387856	-0.37192	0.25206	1.17638	1.80615	-0.313985	-0.215331	0.00223851	0.514649	1.8117
0.45	-0.0259185	-0.0303472	-0.0303522	0.409669	0.946577	-0.187545	-0.0308505	0.0422594	-0.474564	0.269625	0.424814	0.3217	-0.0108961	0.540545	-0.0544869	-0.206006	0.289655	0.122149	0.154332	-0.0109218	-0.177612	-0.0259295	0.0411902	0.404336	-0.376654	0.254285	1.19719	1.80696	-0.327594	-0.212738	-0.00849387	0.516525	1.80421
0.46	-0.0220652	-0.0285122	-0.032601	0.422486	0.944454	-0.187634	-0.0502327	0.0381051	-0.476216	0.273599	0.440582	0.323888	-0.0108929	0.534092	-0.0484852	-0.22351	0.241065	0.136251	0.210923	-0.0109186	-0.181243	-0.028078	0.0420961	0.419327	-0.380666	0.255385	1.21707	1.80742	-0.339566	-0.21014	-0.0189048	0.517327	1.79598
0.47	-0.0175967	-0.0261302	-0.0344487	0.435423	0.942318	-0.187771	-0.0695752	0.0334714	-0.475466	0.278337	0.456297	0.32662	-0.0108897	0.527705	-0.0420976	-0.239876	0.200829	0.150071	0.263717	-0.0109154	-0.185379	-0.030941	0.0425265	0.432585	-0.383881	0.255317	1.23595	1.8075	-0.349802	-0.207694	-0.0286502	0.516946	1.78709
0.48	-0.0126282	-0.0232457	-0.0360013	0.448497	0.940201	-0.187929	-0.0887369	0.0285685	-0.471689	0.283663	0.47177	0.330024	-0.0108864	0.521535	-0.0357569	-0.25502	0.169803	0.163125	0.310226	-0.0109121	-0.189847	-0.0345368	0.0426356	0.443823	-0.386259	0.25404	1.25382	1.80725	-0.358245	-0.205518	-0.0375153	0.515297	1.77769
0.49	-0.00730601	-0.0199339	-0.0373721	0.461725	0.938129	-0.188084	-0.107564	0.0236083	-0.464313	0.289439	0.486704	0.33411	-0.0108832	0.515684	-0.0298737	-0.26891	0.14846	0.174774	0.348273	-0.0109089	-0.194432	-0.0388322	0.0425876	0.452725	-0.387794	0.251529	1.27071	1.80675	-0.364881	-0.203666	-0.0454501	0.512337	1.76808
0.5	-0.00179644	-0.0162613	-0.0386737	0.475124	0.936118	-0.188221	-0.125882	0.0187357	-0.452932	0.295628	0.500676	0.338681	-0.01088	0.5102	-0.0247389	-0.281495	0.136783	0.184206	0.376154	-0.0109057	-0.198898	-0.0437791	0.0425345	0.45898	-0.388519	0.247786	1.28669	1.80613	-0.36974	-0.202132	-0.0525879	0.508074	1.75872
0.51	0.00372602	-0.0122572	-0.0400039	0.488709	0.934177	-0.188333	-0.143489	0.0139836	-0.437414	0.30234	0.513141	0.343241	-0.0108768	0.50507	-0.0204558	-0.29266	0.134204	0.190454	0.392777	-0.0109025	-0.203011	-0.0493452	0.0425906	0.462315	-0.388491	0.242864	1.30183	1.80557	-0.372894	-0.200851	-0.0592403	0.502593	1.7502
0.52	0.00909642	-0.00789839	-0.0414329	0.502493	0.932307	-0.188427	-0.160149	0.00925895	-0.417916	0.309852	0.523457	0.346928	-0.0108736	0.500225	-0.0169153	-0.30224	0.139635	0.192506	0.397804	-0.0108993	-0.206574	-0.0555362	0.0428107	0.462525	-0.38778	0.236869	1.31619	1.8052	-0.374451	-0.199718	-0.065858	0.496067	1.7431
0.53	0.0141895	-0.00309971	-0.0429887	0.516476	0.930551	-0.188518	-0.175587	0.00436795	-0.394836	0.318597	0.530905	0.34851	-0.0108704	0.49557	-0.0138336	-0.310106	0.151598	0.189481	0.39177	-0.0108961	-0.209438	-0.0623889	0.0431794	0.459505	-0.386447	0.229967	1.32978	1.80516	-0.374542	-0.198606	-0.0729527	0.488767	1.73782
0.54	0.018894	0.00224359	-0.0446509	0.530648	0.92893	-0.188627	-0.189479	-0.000943183	-0.368748	0.329141	0.534706	0.346454	-0.0108672	0.491022	-0.010809	-0.316204	0.168423	0.180832	0.37601	-0.0108929	-0.21152	-0.0699644	0.0436054	0.453256	-0.384533	0.222374	1.34252	1.80549	-0.373308	-0.197399	-0.081005	0.48104	1.73446
0.55	0.0231179	0.00823772	-0.0463414	0.544988	0.927462	-0.188774	-0.201446	-0.00693969	-0.340331	0.342146	0.534028	0.339109	-0.010864	0.486554	-0.00740061	-0.32056	0.188474	0.166531	0.352471	-0.0108897	-0.212788	-0.0783175	0.0439267	0.443882	-0.382054	0.214336	1.35428	1.80622	-0.370888	-0.196005	-0.0903783	0.473281	1.7328
0.56	0.0267836	0.0149661	-0.0479245	0.559465	0.926167	-0.188987	-0.211051	-0.0138633	-0.310329	0.358322	0.527999	0.32498	-0.0108607	0.482208	-0.00319905	-0.323256	0.210345	0.147198	0.323428	-0.0108864	-0.213253	-0.0874722	0.0439245	0.431577	-0.378998	0.206113	1.36482	1.80738	-0.367406	-0.194374	-0.101254	0.465891	1.73234
0.57	0.0298259	0.0224751	-0.049217	0.574041	0.925065	-0.189291	-0.217821	-0.021919	-0.279536	0.37838	0.515731	0.30307	-0.0108575	0.478089	0.00212471	-0.324384	0.232985	0.124117	0.291192	-0.0108832	-0.212949	-0.0974064	0.0433439	0.416602	-0.375336	0.197955	1.37385	1.80899	-0.362964	-0.192506	-0.113598	0.459249	1.7324
0.58	0.0321921	0.0307715	-0.0500087	0.588673	0.924172	-0.189714	-0.221274	-0.0312811	-0.248787	0.402985	0.496371	0.273193	-0.0108543	0.474329	0.00880066	-0.324001	0.255726	0.0991184	0.25784	-0.01088	-0.211929	-0.108051	0.0419208	0.399261	-0.371032	0.19009	1.38103	1.81109	-0.357646	-0.190444	-0.12716	0.453692	1.73224
0.59	0.0338425	0.0398274	-0.0500924	0.603318	0.923507	-0.190281	-0.220942	-0.0421009	-0.218927	0.432699	0.469182	0.236097	-0.0108511	0.471042	0.0169616	-0.322115	0.278224	0.0743508	0.225035	-0.0108768	-0.210256	-0.119298	0.0394132	0.379883	-0.366059	0.182715	1.38604	1.81373	-0.35151	-0.188268	-0.141516	0.449505	1.73127
0.6	0.0347458	0.049579	-0.0493029	0.61793	0.923083	-0.191011	-0.216394	-0.0544823	-0.190698	0.467925	0.433641	0.193188	-0.0108479	0.468282	0.0266413	-0.318702	0.300327	0.0519722	0.193959	-0.0108736	-0.207994	-0.131008	0.0356407	0.358807	-0.360411	0.17599	1.38858	1.81693	-0.344599	-0.186076	-0.15613	0.446928	1.72908
